<?xml version="1.0" encoding="UTF-8" standalone="no"?>
<!-- Created with Inkscape (http://www.inkscape.org/) -->

<svg
   width="151.34735mm"
   height="17.722321mm"
   viewBox="0 0 151.34735 17.722321"
   version="1.1"
   id="svg1"
   xml:space="preserve"
   inkscape:export-filename="bitmap.svg"
   inkscape:export-xdpi="96"
   inkscape:export-ydpi="96"
   sodipodi:docname="bitmap.svg"
   xmlns:inkscape="http://www.inkscape.org/namespaces/inkscape"
   xmlns:sodipodi="http://sodipodi.sourceforge.net/DTD/sodipodi-0.dtd"
   xmlns="http://www.w3.org/2000/svg"
   xmlns:svg="http://www.w3.org/2000/svg"><sodipodi:namedview
     id="namedview1"
     pagecolor="#ffffff"
     bordercolor="#999999"
     borderopacity="1"
     inkscape:showpageshadow="2"
     inkscape:pageopacity="0"
     inkscape:pagecheckerboard="0"
     inkscape:deskcolor="#d1d1d1"
     inkscape:document-units="mm"><inkscape:page
       x="0"
       y="0"
       width="151.34735"
       height="17.722321"
       id="page1"
       margin="0"
       bleed="0" /></sodipodi:namedview><defs
     id="defs1" /><g
     inkscape:label="Layer 1"
     inkscape:groupmode="layer"
     id="layer1"
     transform="translate(-31.791324,-165.15954)"><path
       style="fill:#47535d;stroke:none"
       d="m 52.610901,180.35049 v -0.17639 c -0.745826,-0.47105 -1.099083,0.0952 -1.763889,0.52916 -0.836513,0.54606 -1.853402,1.0832 -2.822223,1.35232 -2.571397,0.71428 -5.043146,0.42169 -7.408333,-0.79375 -0.628461,-0.32296 -1.683828,-0.77994 -2.028472,-1.44051 -0.179468,-0.34398 -0.08819,-0.86018 -0.08819,-1.23472 v -2.82222 l 4.938889,2.32245 2.293056,0.99954 3.175,-1.52871 7.408333,-3.90995 c 0,0.57687 0.19995,1.60441 -0.08819,2.11667 -0.310667,0.55229 -1.029545,0.56853 -1.264119,1.23472 -0.590871,1.67807 1.680846,2.91411 2.704626,1.41111 0.66127,-0.9708 -0.128351,-1.57266 -0.558563,-2.32245 -0.26215,-0.4569 -0.227731,-2.11733 -0.0588,-2.61644 0.251767,-0.74386 1.44455,-0.90238 1.910882,-1.41111 -3.009975,-1.90103 -6.380446,-3.30866 -9.525,-4.96829 -1.540281,-0.81293 -3.097265,-2.11551 -4.938889,-1.91088 -1.076716,0.11964 -2.25341,0.99111 -3.175,1.5287 -1.321544,0.7709 -2.730244,1.34276 -4.056945,2.11667 -1.313712,0.76633 -2.704863,1.43247 -4.056945,2.14607 -0.539539,0.28476 -1.499397,0.46954 -1.411111,1.26412 0.06279,0.5651 0.982544,0.69705 1.411111,0.91134 0.885003,0.4425 1.751264,0.92988 2.645834,1.35232 0.533395,0.25188 1.306453,0.36571 1.73449,0.79375 0.32719,0.32719 0.205788,0.93155 0.205788,1.35231 v 2.64583 c 0,0.31285 -0.07819,0.74701 0.08819,1.02894 0.566856,0.96051 2.286193,1.63496 3.263195,2.02847 1.306218,0.52612 2.484344,0.47037 3.880555,0.47037 1.005645,0 2.194467,0.17272 3.175,-0.0588 1.580126,-0.37309 3.222473,-1.31712 4.409723,-2.41064 m 4.938889,-8.29028 -3.175,1.79328 -5.291667,2.82223 -3.175,1.70509 -1.234722,-0.47037 -2.116667,-1.05833 -7.055556,-3.35139 -2.822222,-1.44051 3.704167,-1.96968 5.291666,-2.82222 2.116667,-1.05833 1.234722,-0.61736 0.881945,0.44097 2.469444,1.23472 9.172223,4.7919 m 15.698611,2.46944 c -0.528909,0.19487 -1.735155,0.5722 -2.028472,1.08773 -0.526449,0.92527 1.385805,2.26571 2.028472,2.58704 1.662721,0.83136 3.942293,0.6923 5.468055,-0.38218 1.327939,-0.93516 1.892574,-3.11829 0.999536,-4.52731 -0.70512,-1.11253 -1.928936,-1.68793 -3.116202,-2.11667 -0.701648,-0.25337 -2.524765,-0.71946 -2.26366,-1.76388 0.276125,-1.10449 1.699881,-1.04462 2.440049,-0.49977 0.317788,0.23392 0.611978,0.77675 1.058333,0.76435 0.5647,-0.0157 1.48124,-0.83245 1.940278,-1.14653 -1.196536,-2.39307 -4.216926,-3.1244 -6.526389,-1.96967 -0.909635,0.45481 -1.660079,1.25466 -1.763889,2.32245 -0.216955,2.23156 1.050937,3.41946 2.998611,4.20394 0.848403,0.34171 2.099737,0.53742 2.557639,1.4405 0.598574,1.18052 -0.993275,1.68293 -1.852083,1.5875 -0.889589,-0.0988 -1.460538,-0.91231 -1.940278,-1.5875 m 67.204176,-8.46666 v 4.05694 c -1.74998,-1.61183 -4.58092,-0.92806 -5.93843,0.88195 -1.55563,2.07416 -0.98665,5.818 1.35232,7.08495 0.64214,0.34782 1.39682,0.49977 2.11667,0.49977 1.00965,0 1.71527,-0.18731 2.46944,-0.88195 v 0.70556 h 2.82223 v -12.34722 h -2.82223 m -73.906954,0.17639 v 12.17083 h 2.822219 v -12.17083 h -2.822222 m 15.169445,0 v 12.17083 h 7.9375 v -2.46945 h -3.704167 l -1.322917,-0.35277 -0.08819,-1.94028 h 2.645833 l 0.970139,-0.20579 0.08819,-2.44004 H 84.53729 v -2.11667 h 3.527778 l 1.322916,-0.20579 0.08819,-2.44004 h -7.761111 m 9.701388,0 v 12.17083 h 2.822223 v -3.88056 c 1.662409,0 3.579454,-0.0335 4.938889,-1.11713 1.781687,-1.42018 1.550977,-4.85552 -0.176389,-6.2324 -1.956352,-1.55941 -5.245901,-0.94074 -7.584723,-0.94074 m 2.822223,5.82083 v -3.175 c 0.785611,0 2.16226,-0.26511 2.822222,0.23519 0.838299,0.63548 0.660446,2.15372 -0.176389,2.67523 -0.729197,0.45443 -1.826816,0.26458 -2.645833,0.26458 m 14.111106,5.82083 c 0.10777,0.91595 2.05274,0.52917 2.82223,0.52917 v -8.99583 c -0.76947,0 -2.71446,-0.38679 -2.82223,0.52916 -0.71173,-0.35587 -1.29352,-0.69412 -2.11666,-0.70555 -1.22984,-0.0171 -2.4564,0.33973 -3.35139,1.23472 -1.89429,1.89428 -1.69128,5.80756 0.52917,7.34953 0.86095,0.59789 1.79802,0.76436 2.82222,0.76436 0.86474,0 1.36906,-0.33175 2.11666,-0.70556 m 13.05279,-1.41111 c -0.51602,-0.3259 -1.30052,-0.88194 -1.94029,-0.88194 -1.21523,0 -1.91628,1.0297 -3.175,0.11759 -1.34536,-0.9749 -1.10492,-3.37195 0.52917,-3.93935 1.05477,-0.36624 1.56658,0.43317 2.46945,0.55856 0.60847,0.0845 1.62461,-0.65937 2.11667,-0.97014 -1.66715,-2.87961 -5.9439,-2.75614 -7.87872,-0.17639 -0.74322,0.99098 -0.88116,2.32617 -0.76434,3.52778 0.39436,4.05627 6.79656,5.45687 8.64306,1.76389 m 7.9375,1.23472 v 0.70556 h 2.82223 v -8.99583 h -2.82223 v 0.70555 c -1.70493,-1.57033 -4.64453,-0.98127 -5.93843,0.88195 -1.54025,2.21795 -0.94669,5.84725 1.5287,7.08495 0.65004,0.32502 1.20571,0.49977 1.94028,0.49977 1.00965,0 1.71527,-0.1873 2.46945,-0.88195 m 23.98889,-0.17639 v -0.52916 c -0.47047,-0.27238 -1.02298,-1.13869 -1.5875,-1.14653 -0.33165,-0.005 -0.73002,0.30466 -1.05833,0.38217 -1.22122,0.28835 -2.53067,-0.16682 -2.99861,-1.35231 h 6.17361 c 0.16315,-0.88565 0.2109,-1.76318 -0.0588,-2.64583 -1.12103,-3.66885 -5.79208,-3.78062 -8.0551,-1.23472 -2.11428,2.37855 -0.74244,6.35678 2.11667,7.34953 1.96441,0.68209 3.73998,0.0409 5.46805,-0.82315 m 4.93889,-6.87916 v -1.23472 h -2.82222 v 8.99583 h 2.82222 v -3.52778 c 0,-0.53899 -0.1201,-1.24867 0.0588,-1.76389 0.54328,-1.56467 2.49416,-1.93245 3.4102,-0.52916 0.36077,0.55266 0.23518,1.31155 0.23518,1.94027 v 3.88056 h 2.82222 v -3.52778 c 0,-0.64743 -0.0917,-1.3452 0.20579,-1.94028 0.53674,-1.07346 2.18161,-1.86419 3.08681,-0.70555 0.48299,0.61822 0.41157,1.38071 0.41157,2.11666 v 4.05695 h 2.82222 c 0,-2.94306 1.01989,-8.99009 -3.35139,-9.17222 -0.40269,-0.0168 -0.84076,-0.0342 -1.23472,0.0588 -1.1455,0.27047 -1.71509,1.15167 -2.64584,1.7051 -0.60973,-1.54472 -2.93307,-2.18499 -4.40972,-1.52871 -0.57157,0.25404 -0.97614,0.74096 -1.41111,1.17593 m 14.2875,-1.41111 2.88103,6.70277 0.91133,2.11667 -0.38217,1.05833 -1.11713,2.64584 2.76342,-0.0882 0.44097,-0.97014 0.88194,-1.94027 4.20394,-9.34861 -2.64583,-0.0882 -0.94075,1.85208 -1.70508,3.88056 -1.7345,-3.88056 -0.94073,-1.85208 -2.61644,-0.0882 m -21.16667,3.70416 h -3.70416 c 0.47415,-1.80175 3.30766,-1.88343 3.70416,0 m -45.50834,-1.20532 c 0.7358,-0.14308 1.57664,-0.0577 2.11667,0.49977 0.97871,1.01027 0.70724,3.3312 -0.70556,3.82176 -3.00995,1.04512 -4.24873,-3.76977 -1.41111,-4.32153 m 20.81389,0 c 0.84163,-0.17534 1.8876,-0.0757 2.41066,0.67616 0.73761,1.06031 0.53707,3.17306 -0.82315,3.64537 -0.84425,0.29314 -2.05676,0.085 -2.58705,-0.64676 -0.8095,-1.11711 -0.54884,-3.35219 0.99954,-3.67477 m 11.11251,0 c 0.84161,-0.17534 1.88759,-0.0757 2.41065,0.67616 0.73761,1.0603 0.53706,3.17307 -0.82315,3.64537 -1.06393,0.36942 -2.54892,-0.0501 -2.93982,-1.17593 -0.39976,-1.15131 0.0394,-2.87208 1.35232,-3.1456 m -81.668067,5.11528 c 1.017229,-0.31415 1.481564,1.17191 0.529167,1.4993 -1.001468,0.34426 -1.516585,-1.19437 -0.529167,-1.4993 z"
       id="path1" /></g></svg>
